<mxfile host="app.diagrams.net" modified="2023-08-25T14:25:47.513Z" agent="Mozilla/5.0 (X11; Linux x86_64; rv:109.0) Gecko/20100101 Firefox/112.0" etag="v9E0DmjVmsgHji9b3ibF" version="21.6.9" type="github">
  <diagram name="Página-1" id="stgIBXvdLURIVluGPvkj">
    <mxGraphModel dx="1434" dy="673" grid="1" gridSize="10" guides="1" tooltips="1" connect="1" arrows="1" fold="1" page="1" pageScale="1" pageWidth="827" pageHeight="1169" math="0" shadow="0">
      <root>
        <mxCell id="0" />
        <mxCell id="1" parent="0" />
        <mxCell id="m15aj1b_lCA6CJKdh0EM-1" value="Departamento" style="rounded=0;whiteSpace=wrap;html=1;" vertex="1" parent="1">
          <mxGeometry x="184" y="100" width="120" height="60" as="geometry" />
        </mxCell>
        <mxCell id="m15aj1b_lCA6CJKdh0EM-2" value="" style="endArrow=none;html=1;rounded=0;" edge="1" parent="1">
          <mxGeometry width="50" height="50" relative="1" as="geometry">
            <mxPoint x="304" y="130" as="sourcePoint" />
            <mxPoint x="374" y="130" as="targetPoint" />
          </mxGeometry>
        </mxCell>
        <mxCell id="m15aj1b_lCA6CJKdh0EM-3" value="Tem" style="rhombus;whiteSpace=wrap;html=1;" vertex="1" parent="1">
          <mxGeometry x="374" y="90" width="80" height="80" as="geometry" />
        </mxCell>
        <mxCell id="m15aj1b_lCA6CJKdh0EM-4" value="Funcionário" style="rounded=0;whiteSpace=wrap;html=1;" vertex="1" parent="1">
          <mxGeometry x="524" y="100" width="120" height="60" as="geometry" />
        </mxCell>
        <mxCell id="m15aj1b_lCA6CJKdh0EM-5" value="" style="endArrow=none;html=1;rounded=0;" edge="1" parent="1">
          <mxGeometry width="50" height="50" relative="1" as="geometry">
            <mxPoint x="454" y="129.5" as="sourcePoint" />
            <mxPoint x="524" y="129.5" as="targetPoint" />
          </mxGeometry>
        </mxCell>
        <mxCell id="m15aj1b_lCA6CJKdh0EM-6" value="1" style="text;html=1;align=center;verticalAlign=middle;resizable=0;points=[];autosize=1;strokeColor=none;fillColor=none;" vertex="1" parent="1">
          <mxGeometry x="309" y="98" width="30" height="30" as="geometry" />
        </mxCell>
        <mxCell id="m15aj1b_lCA6CJKdh0EM-7" value="N" style="text;html=1;align=center;verticalAlign=middle;resizable=0;points=[];autosize=1;strokeColor=none;fillColor=none;" vertex="1" parent="1">
          <mxGeometry x="489" y="98" width="30" height="30" as="geometry" />
        </mxCell>
        <mxCell id="m15aj1b_lCA6CJKdh0EM-8" value="" style="endArrow=none;html=1;rounded=0;entryX=0.383;entryY=1;entryDx=0;entryDy=0;entryPerimeter=0;" edge="1" parent="1">
          <mxGeometry width="50" height="50" relative="1" as="geometry">
            <mxPoint x="583.54" y="230" as="sourcePoint" />
            <mxPoint x="583.5" y="160" as="targetPoint" />
          </mxGeometry>
        </mxCell>
        <mxCell id="m15aj1b_lCA6CJKdh0EM-9" value="Pertence" style="rhombus;whiteSpace=wrap;html=1;" vertex="1" parent="1">
          <mxGeometry x="544" y="230" width="80" height="80" as="geometry" />
        </mxCell>
        <mxCell id="m15aj1b_lCA6CJKdh0EM-10" value="" style="endArrow=none;html=1;rounded=0;entryX=0.383;entryY=1;entryDx=0;entryDy=0;entryPerimeter=0;" edge="1" parent="1">
          <mxGeometry width="50" height="50" relative="1" as="geometry">
            <mxPoint x="583.54" y="380" as="sourcePoint" />
            <mxPoint x="583.5" y="310" as="targetPoint" />
          </mxGeometry>
        </mxCell>
        <mxCell id="m15aj1b_lCA6CJKdh0EM-11" value="Projeto" style="rounded=0;whiteSpace=wrap;html=1;" vertex="1" parent="1">
          <mxGeometry x="519" y="380" width="120" height="60" as="geometry" />
        </mxCell>
        <mxCell id="m15aj1b_lCA6CJKdh0EM-12" value="1" style="text;html=1;align=center;verticalAlign=middle;resizable=0;points=[];autosize=1;strokeColor=none;fillColor=none;" vertex="1" parent="1">
          <mxGeometry x="580" y="160" width="30" height="30" as="geometry" />
        </mxCell>
        <mxCell id="m15aj1b_lCA6CJKdh0EM-13" value="N" style="text;html=1;align=center;verticalAlign=middle;resizable=0;points=[];autosize=1;strokeColor=none;fillColor=none;" vertex="1" parent="1">
          <mxGeometry x="580" y="350" width="30" height="30" as="geometry" />
        </mxCell>
        <mxCell id="m15aj1b_lCA6CJKdh0EM-14" value="" style="endArrow=none;html=1;rounded=0;" edge="1" parent="1">
          <mxGeometry width="50" height="50" relative="1" as="geometry">
            <mxPoint x="409" y="409.5" as="sourcePoint" />
            <mxPoint x="519" y="409.5" as="targetPoint" />
          </mxGeometry>
        </mxCell>
        <mxCell id="m15aj1b_lCA6CJKdh0EM-15" value="Utiliza" style="rhombus;whiteSpace=wrap;html=1;" vertex="1" parent="1">
          <mxGeometry x="334" y="370" width="80" height="80" as="geometry" />
        </mxCell>
        <mxCell id="m15aj1b_lCA6CJKdh0EM-16" value="" style="endArrow=none;html=1;rounded=0;" edge="1" parent="1">
          <mxGeometry width="50" height="50" relative="1" as="geometry">
            <mxPoint x="349" y="390" as="sourcePoint" />
            <mxPoint x="310" y="350" as="targetPoint" />
          </mxGeometry>
        </mxCell>
        <mxCell id="m15aj1b_lCA6CJKdh0EM-17" value="" style="endArrow=none;html=1;rounded=0;entryX=0.2;entryY=0.75;entryDx=0;entryDy=0;entryPerimeter=0;" edge="1" parent="1" target="m15aj1b_lCA6CJKdh0EM-15">
          <mxGeometry width="50" height="50" relative="1" as="geometry">
            <mxPoint x="309" y="470" as="sourcePoint" />
            <mxPoint x="339" y="430" as="targetPoint" />
          </mxGeometry>
        </mxCell>
        <mxCell id="m15aj1b_lCA6CJKdh0EM-18" value="Fornecedor" style="swimlane;fontStyle=0;childLayout=stackLayout;horizontal=1;startSize=30;horizontalStack=0;resizeParent=1;resizeParentMax=0;resizeLast=0;collapsible=1;marginBottom=0;whiteSpace=wrap;html=1;" vertex="1" parent="1">
          <mxGeometry x="170" y="440" width="140" height="90" as="geometry" />
        </mxCell>
        <mxCell id="m15aj1b_lCA6CJKdh0EM-19" value="Data de início" style="text;strokeColor=none;fillColor=none;align=left;verticalAlign=middle;spacingLeft=4;spacingRight=4;overflow=hidden;points=[[0,0.5],[1,0.5]];portConstraint=eastwest;rotatable=0;whiteSpace=wrap;html=1;" vertex="1" parent="m15aj1b_lCA6CJKdh0EM-18">
          <mxGeometry y="30" width="140" height="30" as="geometry" />
        </mxCell>
        <mxCell id="m15aj1b_lCA6CJKdh0EM-20" value="Horas trabalhadas" style="text;strokeColor=none;fillColor=none;align=left;verticalAlign=middle;spacingLeft=4;spacingRight=4;overflow=hidden;points=[[0,0.5],[1,0.5]];portConstraint=eastwest;rotatable=0;whiteSpace=wrap;html=1;" vertex="1" parent="m15aj1b_lCA6CJKdh0EM-18">
          <mxGeometry y="60" width="140" height="30" as="geometry" />
        </mxCell>
        <mxCell id="m15aj1b_lCA6CJKdh0EM-22" value="Peças" style="rounded=0;whiteSpace=wrap;html=1;" vertex="1" parent="1">
          <mxGeometry x="189" y="290" width="120" height="60" as="geometry" />
        </mxCell>
        <mxCell id="m15aj1b_lCA6CJKdh0EM-27" value="" style="endArrow=none;html=1;rounded=0;entryX=0.638;entryY=0.975;entryDx=0;entryDy=0;entryPerimeter=0;" edge="1" parent="1" target="m15aj1b_lCA6CJKdh0EM-28">
          <mxGeometry width="50" height="50" relative="1" as="geometry">
            <mxPoint x="170" y="490" as="sourcePoint" />
            <mxPoint x="120" y="450" as="targetPoint" />
          </mxGeometry>
        </mxCell>
        <mxCell id="m15aj1b_lCA6CJKdh0EM-28" value="Fornece" style="rhombus;whiteSpace=wrap;html=1;" vertex="1" parent="1">
          <mxGeometry x="70" y="370" width="80" height="80" as="geometry" />
        </mxCell>
        <mxCell id="m15aj1b_lCA6CJKdh0EM-30" value="" style="endArrow=none;html=1;rounded=0;entryX=0;entryY=0.25;entryDx=0;entryDy=0;" edge="1" parent="1" target="m15aj1b_lCA6CJKdh0EM-22">
          <mxGeometry width="50" height="50" relative="1" as="geometry">
            <mxPoint x="119" y="370" as="sourcePoint" />
            <mxPoint x="160" y="330" as="targetPoint" />
          </mxGeometry>
        </mxCell>
        <mxCell id="m15aj1b_lCA6CJKdh0EM-31" value="1" style="text;html=1;align=center;verticalAlign=middle;resizable=0;points=[];autosize=1;strokeColor=none;fillColor=none;" vertex="1" parent="1">
          <mxGeometry x="489" y="380" width="30" height="30" as="geometry" />
        </mxCell>
        <mxCell id="m15aj1b_lCA6CJKdh0EM-32" value="N" style="text;html=1;align=center;verticalAlign=middle;resizable=0;points=[];autosize=1;strokeColor=none;fillColor=none;" vertex="1" parent="1">
          <mxGeometry x="315" y="418" width="30" height="30" as="geometry" />
        </mxCell>
        <mxCell id="m15aj1b_lCA6CJKdh0EM-33" value="Contém" style="rhombus;whiteSpace=wrap;html=1;" vertex="1" parent="1">
          <mxGeometry x="209" y="180" width="80" height="80" as="geometry" />
        </mxCell>
        <mxCell id="m15aj1b_lCA6CJKdh0EM-34" value="" style="endArrow=none;html=1;rounded=0;exitX=0.5;exitY=0;exitDx=0;exitDy=0;entryX=0.5;entryY=1;entryDx=0;entryDy=0;" edge="1" parent="1" source="m15aj1b_lCA6CJKdh0EM-22" target="m15aj1b_lCA6CJKdh0EM-33">
          <mxGeometry width="50" height="50" relative="1" as="geometry">
            <mxPoint x="260" y="290" as="sourcePoint" />
            <mxPoint x="250" y="270" as="targetPoint" />
          </mxGeometry>
        </mxCell>
        <mxCell id="m15aj1b_lCA6CJKdh0EM-35" value="" style="endArrow=none;html=1;rounded=0;" edge="1" parent="1" source="m15aj1b_lCA6CJKdh0EM-33">
          <mxGeometry width="50" height="50" relative="1" as="geometry">
            <mxPoint x="170" y="230" as="sourcePoint" />
            <mxPoint x="150" y="220" as="targetPoint" />
          </mxGeometry>
        </mxCell>
        <mxCell id="m15aj1b_lCA6CJKdh0EM-36" value="Depósito" style="rounded=0;whiteSpace=wrap;html=1;" vertex="1" parent="1">
          <mxGeometry x="30" y="190" width="120" height="60" as="geometry" />
        </mxCell>
        <mxCell id="m15aj1b_lCA6CJKdh0EM-37" value="N" style="text;html=1;align=center;verticalAlign=middle;resizable=0;points=[];autosize=1;strokeColor=none;fillColor=none;" vertex="1" parent="1">
          <mxGeometry x="255" y="258" width="30" height="30" as="geometry" />
        </mxCell>
        <mxCell id="m15aj1b_lCA6CJKdh0EM-38" value="1" style="text;html=1;align=center;verticalAlign=middle;resizable=0;points=[];autosize=1;strokeColor=none;fillColor=none;" vertex="1" parent="1">
          <mxGeometry x="150" y="190" width="30" height="30" as="geometry" />
        </mxCell>
        <mxCell id="m15aj1b_lCA6CJKdh0EM-39" value="N" style="text;html=1;align=center;verticalAlign=middle;resizable=0;points=[];autosize=1;strokeColor=none;fillColor=none;" vertex="1" parent="1">
          <mxGeometry x="305" y="328" width="30" height="30" as="geometry" />
        </mxCell>
        <mxCell id="m15aj1b_lCA6CJKdh0EM-40" value="1" style="text;html=1;align=center;verticalAlign=middle;resizable=0;points=[];autosize=1;strokeColor=none;fillColor=none;" vertex="1" parent="1">
          <mxGeometry x="135" y="438" width="30" height="30" as="geometry" />
        </mxCell>
        <mxCell id="m15aj1b_lCA6CJKdh0EM-41" value="N" style="text;html=1;align=center;verticalAlign=middle;resizable=0;points=[];autosize=1;strokeColor=none;fillColor=none;" vertex="1" parent="1">
          <mxGeometry x="125" y="358" width="30" height="30" as="geometry" />
        </mxCell>
      </root>
    </mxGraphModel>
  </diagram>
</mxfile>
